<svg width="64" height="51" viewBox="0 0 64 51" fill="none" xmlns="http://www.w3.org/2000/svg">
<rect width="64" height="51" fill="white"/>
<path d="M17.0296 29.4782C14.3665 27.9323 14.3756 24.0833 17.0459 22.55L29.0622 15.6502C31.7325 14.1169 35.0613 16.0492 35.054 19.1284L35.0213 32.9848C35.0141 36.064 31.6762 37.9806 29.0132 36.4347L17.0296 29.4782Z" fill="black"/>
<path d="M36 25.5C36 24.6716 36.6716 24 37.5 24H43.5C44.3284 24 45 24.6716 45 25.5V25.5C45 26.3284 44.3284 27 43.5 27H37.5C36.6716 27 36 26.3284 36 25.5V25.5Z" fill="black"/>
</svg>
